<svg xmlns="http://www.w3.org/2000/svg" viewBox="0 0 640 230" width="640" height="230" role="img" aria-label="No hosted projects yet"><title>No hosted projects yet</title><defs>
<linearGradient id="gA" x1="0" y1="0" x2="1" y2="0"><stop offset="0" stop-color="#6EE7FF"/><stop offset=".55" stop-color="#5B9CFF"/><stop offset="1" stop-color="#8B7CFF"/></linearGradient>
<linearGradient id="gAd" x1="0" y1="0" x2="1" y2="1"><stop offset="0" stop-color="#6EE7FF"/><stop offset=".55" stop-color="#5B9CFF"/><stop offset="1" stop-color="#8B7CFF"/></linearGradient>
<linearGradient id="gFade" x1="0" y1="0" x2="1" y2="0"><stop offset="0" stop-color="#5B9CFF" stop-opacity=".7"/><stop offset="1" stop-color="#5B9CFF" stop-opacity="0"/></linearGradient>
<linearGradient id="gSurf" x1="0" y1="0" x2="0" y2="1"><stop offset="0" stop-color="#111722"/><stop offset="1" stop-color="#0D1118"/></linearGradient>
<filter id="glow" x="-50%" y="-50%" width="200%" height="200%"><feGaussianBlur stdDeviation="3"/></filter>
</defs><rect x=".5" y=".5" width="639" height="229" rx="18" fill="url(#gSurf)"/><rect x=".5" y=".5" width="639" height="229" rx="18" fill="none" stroke="#202A38" stroke-opacity="1"/><path d="M18 32V18H32M608 18H622V32M622 198V212H608M32 212H18V198" fill="none" stroke="#202A38" stroke-width="1"/><rect x="272.0" y="44" width="96" height="64" rx="8" fill="none" stroke="#202A38" stroke-dasharray="4 4"/><path d="M272.0 62H368.0" stroke="#202A38"/><circle cx="282.0" cy="53" r="2" fill="#536070"/><circle cx="290.0" cy="53" r="2" fill="#536070"/><circle cx="298.0" cy="53" r="2" fill="#536070"/><circle cx="320.0" cy="86" r="6" fill="none" stroke="#6EE7FF" stroke-opacity=".6"><animate attributeName="r" values="4;10;4" dur="3.2s" repeatCount="indefinite"/><animate attributeName="stroke-opacity" values=".7;0;.7" dur="3.2s" repeatCount="indefinite"/></circle><circle cx="320.0" cy="86" r="2.6" fill="#6EE7FF"/><text x="320.0" y="152" font-family="Inter,'SF Pro Display','Segoe UI',system-ui,-apple-system,Helvetica,Arial,sans-serif" font-size="22" font-weight="600" fill="#F3F7FA" text-anchor="middle" letter-spacing="0" >No hosted projects yet.</text><text x="320.0" y="180" font-family="Inter,'SF Pro Display','Segoe UI',system-ui,-apple-system,Helvetica,Arial,sans-serif" font-size="14.5" font-weight="400" fill="#8B98A8" text-anchor="middle" letter-spacing="0" >Live projects will appear here as soon as they are deployed.</text><text x="320.0" y="204" font-family="'JetBrains Mono','SF Mono',ui-monospace,SFMono-Regular,Menlo,Consolas,'Liberation Mono',monospace" font-size="10" font-weight="400" fill="#536070" text-anchor="middle" letter-spacing="2.4" >STATUS  EMPTY</text></svg>
